<svg width="75" height="75" viewBox="0 0 75 75" fill="none" xmlns="http://www.w3.org/2000/svg">
<path d="M75 64.5833C75 70.4167 70.4167 75 64.5833 75H10.4167C4.58333 75 0 70.4167 0 64.5833V10.4167C0 4.58333 4.58333 0 10.4167 0H64.5833C70.4167 0 75 4.58333 75 10.4167V64.5833Z" fill="#635854"/>
<path d="M43.5417 50.8333C46.6667 50.2083 49.5833 48.9583 52.0833 47.2917C54.1667 46.0417 54.7917 43.3333 53.5417 41.25C52.2917 39.1667 49.5833 38.5417 47.5 39.7917C41.4583 43.5417 33.5417 43.5417 27.5 39.7917C25.4167 38.5417 22.7083 39.1667 21.4583 41.25C20.2083 43.3333 20.8333 46.0417 22.9167 47.2917C25.625 48.9583 28.5417 50.2083 31.4583 50.8333L23.125 59.1667C21.4583 60.8333 21.4583 63.5417 23.125 65.4167C23.9583 66.25 25 66.6667 26.25 66.6667C27.2917 66.6667 28.5417 66.25 29.375 65.4167L37.5 57.2917L45.625 65.4167C47.2917 67.0833 50 67.0833 51.875 65.4167C53.5417 63.75 53.5417 61.0417 51.875 59.1667L43.5417 50.8333ZM37.5 8.33334C29.375 8.33334 22.9167 14.7917 22.9167 22.9167C22.9167 31.0417 29.375 37.5 37.5 37.5C45.625 37.5 52.0833 31.0417 52.0833 22.9167C52.0833 14.7917 45.625 8.33334 37.5 8.33334ZM37.5 29.1667C33.9583 29.1667 31.25 26.4583 31.25 22.9167C31.25 19.375 33.9583 16.6667 37.5 16.6667C41.0417 16.6667 43.75 19.375 43.75 22.9167C43.75 26.4583 41.0417 29.1667 37.5 29.1667Z" stroke="white" stroke-width="2"/>
</svg>
