<svg width="75" height="75" viewBox="0 0 75 75" fill="none" xmlns="http://www.w3.org/2000/svg">
<path d="M75 64.5833C75 70.3375 70.3375 75 64.5833 75H10.4167C4.66458 75 0 70.3375 0 64.5833V10.4167C0 4.6625 4.66458 0 10.4167 0H64.5833C70.3375 0 75 4.6625 75 10.4167V64.5833Z" fill="#635854"/>
<path d="M62.3687 25.0854C62.4646 24.7708 62.5104 24.4792 62.4979 24.2187C62.4667 23.4646 61.9479 22.9167 60.7271 22.9167H55.2729C53.8958 22.9167 53.2604 23.75 52.8896 24.5854C52.8896 24.5854 49.4896 31.5833 45.5708 36.1979C44.3 37.5333 43.6542 37.5 42.9667 37.5C42.5979 37.5 41.6667 37.0542 41.6667 35.8312V25.0292C41.6667 23.5833 41.3062 22.9167 40.1417 22.9167H30.4562C29.6083 22.9167 29.1667 23.5833 29.1667 24.2521C29.1667 25.6417 31.0375 25.975 31.25 29.8687V37.4167C31.25 39.25 30.9312 39.5833 30.2437 39.5833C28.3896 39.5833 24.7396 33.3333 22.2958 25.1417C21.7667 23.5292 21.2375 22.9167 19.8604 22.9167H14.3542C12.7646 22.9167 12.5 23.6958 12.5 24.5292C12.5 26.0312 13.75 34.1521 20.5729 43.4896C25.5208 50.2604 32.0396 54.1667 37.8104 54.1667C41.3062 54.1667 41.6646 53.2771 41.6646 51.8875V45.6958C41.6667 44.0271 42.0479 43.75 43.1604 43.75C43.9542 43.75 45.5729 44.2708 48.6979 47.9167C52.3021 52.1208 52.9562 54.1667 55.0229 54.1667H60.4771C61.7437 54.1667 62.4708 53.6354 62.5 52.6042C62.5062 52.3417 62.4687 52.0479 62.3833 51.7208C61.9792 50.5208 60.125 47.5875 57.8125 44.7917C56.5312 43.2437 55.2667 41.7104 54.6854 40.8771C54.2958 40.3333 54.1479 39.95 54.1667 39.5833C54.1854 39.1979 54.3854 38.8312 54.6854 38.3187C54.6312 38.3187 61.6812 28.4208 62.3687 25.0854Z" stroke="white" stroke-width="2"/>
</svg>
